<svg width="70" height="68" viewBox="0 0 70 68" fill="none" xmlns="http://www.w3.org/2000/svg">
<path d="M69.2054 31.3212L40.7146 2.64268C40.6781 2.60577 40.6402 2.56995 40.6016 2.53522C37.4906 -0.258082 32.7895 -0.268063 29.6666 2.51211C29.6278 2.5467 29.59 2.58239 29.5532 2.61903L0.802797 31.3129C-0.26607 32.3798 -0.267848 34.1111 0.798969 35.18C1.86592 36.2488 3.59719 36.2505 4.66592 35.1838L6.83592 33.018V56.6272C6.83592 62.6581 11.7425 67.5647 17.7734 67.5647H27.6172C29.1274 67.5647 30.3515 66.3405 30.3515 64.8303V42.5451H39.9219V64.8303C39.9219 66.3405 41.146 67.5647 42.6562 67.5647H52.2265C58.2575 67.5647 63.164 62.6581 63.164 56.6272C63.164 55.117 61.9399 53.8928 60.4297 53.8928C58.9195 53.8928 57.6953 55.117 57.6953 56.6272C57.6953 59.6426 55.242 62.0959 52.2265 62.0959H45.3906V39.8108C45.3906 38.3006 44.1664 37.0764 42.6562 37.0764H27.6172C26.107 37.0764 24.8828 38.3006 24.8828 39.8108V62.0959H17.7734C14.758 62.0959 12.3047 59.6426 12.3047 56.6272V27.6428C12.3047 27.6155 12.3043 27.5882 12.3034 27.5612L33.352 6.5542C34.3764 5.68426 35.8789 5.68754 36.8994 6.56172L57.6953 27.4947V42.9553C57.6953 44.4655 58.9195 45.6897 60.4297 45.6897C61.9399 45.6897 63.164 44.4655 63.164 42.9553V32.9994L65.3258 35.1756C65.8603 35.7136 66.5627 35.9828 67.2656 35.9828C67.9625 35.9828 68.6595 35.718 69.1928 35.1882C70.2641 34.1238 70.2699 32.3925 69.2054 31.3212Z" fill="#222222"/>
</svg>
